<svg width="1024" height="1024" viewBox="0 0 1024 1024" fill="none" xmlns="http://www.w3.org/2000/svg">
<rect width="1024" height="1024" rx="83" fill="black"/>
<path d="M493.041 180C638.315 180 756.083 297.767 756.083 443.041C756.083 477.211 749.566 509.859 737.71 539.812L737.794 539.831C695.431 644.687 580.062 826.641 334.82 844.77C378.166 800.808 415.621 751.27 444.245 701.564C322.286 678.687 230 571.641 230 443.041C230 297.768 347.768 180 493.041 180ZM737.624 697.512C768.208 697.512 793.001 722.305 793.001 752.889C793.001 783.473 768.208 808.266 737.624 808.266C707.04 808.266 682.247 783.473 682.247 752.889C682.247 722.305 707.04 697.512 737.624 697.512ZM321.007 434.442C321.007 434.442 327.202 575.183 460.873 574.309C594.405 573.434 602.566 432.892 602.583 432.6L321.007 434.442Z" fill="white"/>
</svg>
